<svg xmlns="http://www.w3.org/2000/svg" width="222.106" height="33.753" viewBox="0 0 222.106 33.753">
  <path id="logo_white_h" d="M-215.221-4683.121c-1.412-.05-2.826-.048-4.24-.047-.561,0-1.124,0-1.685,0h-.86c-.009-.038-.017-.076-.025-.115.134-.064.263-.14.4-.19,1.3-.478,2.607-.939,3.9-1.434a4.124,4.124,0,0,0,1.679-1.238,1.427,1.427,0,0,0,.23-1.593,5.049,5.049,0,0,0-2.849-2.772c-.8-.34-1.659-.558-2.492-.825-.317-.1-.638-.191-1-.3a4.607,4.607,0,0,0-.135.451,29.115,29.115,0,0,1-2.671,7.358,1.238,1.238,0,0,0-.114.238c-.1.392-.372.471-.732.465q-2.5-.044-5-.065c-.767-.007-1.534,0-2.331-.055,3.221-1.4,5.307-3.964,7.1-6.826.121-.192.215-.4.393-.735-.362.085-.593.129-.816.194a31.62,31.62,0,0,0-8.078,3.465,16.076,16.076,0,0,0-4.147,3.7.844.844,0,0,1-.572.31c-2.517,0-5.033-.025-7.55-.047a.724.724,0,0,1-.177-.066,2.908,2.908,0,0,1,.357-.215,40.119,40.119,0,0,0,6.521-3.215c1.3-.836,2.549-1.768,3.763-2.729a71.841,71.841,0,0,0,7.555-6.9c.1-.105.189-.223.285-.333a.737.737,0,0,1,.343-.257,4.826,4.826,0,0,1-.269.477c-1.138,1.594-2.285,3.183-3.421,4.78a2.345,2.345,0,0,0-.2.488,1.784,1.784,0,0,0,.49.027c2.12-.495,4.236-1.008,6.358-1.5a1.478,1.478,0,0,0,1.064-.938,31.34,31.34,0,0,0,2.383-7.231,47.171,47.171,0,0,0,.859-7.758c.024-1.433.153-2.865.213-4.3.028-.667,0-1.336,0-2.149a2.173,2.173,0,0,1,.357.435c1.18,2.988,2.46,5.943,3.479,8.984a31.957,31.957,0,0,1,.942,5.167,9.365,9.365,0,0,1,.163,2.22,14.314,14.314,0,0,1-.522,2.481,3.885,3.885,0,0,1-1.945,2.389c-.671.381-1.392.674-2.091,1a2.83,2.83,0,0,0-.695.393c.18.032.36.066.541.1a13.9,13.9,0,0,1,5.394,1.855,8.1,8.1,0,0,1,2.7,2.661,2.462,2.462,0,0,1-.84,3.614,3.094,3.094,0,0,1-1.856.584Zm-5.012-29.912a2.767,2.767,0,0,0-.06.577c.156,1.51.344,3.017.486,4.526a28.832,28.832,0,0,1-.235,7.4,31.536,31.536,0,0,1-1.342,5.752c-.072.2-.147.4-.254.686a2.789,2.789,0,0,0,.549-.124,5.051,5.051,0,0,0,2.9-3.478,16.655,16.655,0,0,0,.356-4.8,32.922,32.922,0,0,0-1.052-6.7c-.349-1.291-.757-2.565-1.14-3.846Zm191.278,26.2c-.093-1.437.754-1.976,2.093-1.337a1.283,1.283,0,0,0,.348.059v1.942a4.758,4.758,0,0,1-.7.446.9.9,0,0,1-.358.07A1.455,1.455,0,0,1-28.956-4686.834Zm-9.788-.679a5.243,5.243,0,0,1,2.241-8.006,8.42,8.42,0,0,1,5.455.12.4.4,0,0,1,.237.282c.013.8,0,1.609-.011,2.414,0,.031-.045.062-.188.242a5.11,5.11,0,0,1-.336-.942,2.12,2.12,0,0,0-1.845-1.932,3.029,3.029,0,0,0-3.555,2.19,6.538,6.538,0,0,0,.076,4.395,3.378,3.378,0,0,0,1.8,2.028,2.989,2.989,0,0,0,3.585-.931c.174-.213.376-.4.564-.6l.172.18a4.106,4.106,0,0,1-2.129,2.094,5.257,5.257,0,0,1-1.864.329A5.455,5.455,0,0,1-38.744-4687.513Zm-59.639,1.417a1.292,1.292,0,0,1-.569-.665c-.451-1.01-.832-2.052-1.289-3.059a1.5,1.5,0,0,0-1.822-.55.533.533,0,0,0-.166.4c-.015,1.031,0,2.063-.015,3.093-.006.406.217.564.555.683a.668.668,0,0,1,.4.4c-.871-.049-1.742-.136-2.613-.131a11.84,11.84,0,0,0-1.782.208c-.369.059-.489-.048-.39-.4,1.111-.142,1.291-.354,1.29-1.524q-.007-3.365-.02-6.733c0-.75-.135-.886-.895-1.022-.147-.026-.267-.2-.4-.3.151-.057.319-.189.451-.16a14.3,14.3,0,0,0,4.454.039,8.162,8.162,0,0,1,2.862.386,2.173,2.173,0,0,1,.788,3.767,12.205,12.205,0,0,1-1.683,1.117,5.674,5.674,0,0,1,2.349,2.673c.427.752.968,1.44,1.473,2.177-.2.013-.4.02-.6.02A6.406,6.406,0,0,1-98.383-4686.1Zm-2.832-4.917c.718.048,1.413.1,1.844-.75a2.518,2.518,0,0,0-.156-2.86,2.643,2.643,0,0,0-2.662-.539v4.167a2.368,2.368,0,0,1,.472-.042C-101.55-4691.036-101.382-4691.025-101.214-4691.013Zm6.547,5.193c.135-.12.269-.24.406-.357.322-.277.77-.489.944-.838.593-1.188,1.095-2.423,1.62-3.645.685-1.59,1.35-3.192,2.053-4.774a.81.81,0,0,1,.554-.416c.137-.014.368.259.446.45,1.147,2.8,2.261,5.609,3.426,8.4.138.333.529.557.794.84a2.814,2.814,0,0,1,.235.333c-.123.033-.26.12-.368.092a8.619,8.619,0,0,0-4.17,0c-.353.081-.37.062-.348-.379a8.9,8.9,0,0,0,1.053-.21c.29-.092.387-.29.213-.613a4.839,4.839,0,0,1-.44-1.118c-.1-.4-.256-.567-.693-.555-.559.017-1.117.007-1.674,0-.35-.006-.7-.012-1.051-.011-.118,0-.312.064-.343.146a13.608,13.608,0,0,0-.516,1.6c-.117.5.1.77.651.716a2.048,2.048,0,0,1,.411.042c.027.063.053.125.079.187-.172.078-.39.268-.506.218a2.807,2.807,0,0,0-2.388.021.162.162,0,0,1-.07.015A.65.65,0,0,1-94.667-4685.82Zm3.836-3.381c.254,0,.509,0,.764-.007.441-.018.882-.055,1.354-.084-.439-1.284-.833-2.434-1.227-3.584l-.213-.068c-.467,1.1-.949,2.19-1.392,3.3-.116.289.089.446.392.446h.322Zm-55.362,3.506a10.372,10.372,0,0,0-4.368-.085,1.546,1.546,0,0,1-.522-.126c.147-.085.3-.246.441-.244a.763.763,0,0,0,.9-.866c.007-.969.025-1.939.028-2.91q.009-2.183,0-4.368c0-.861-.217-1.046-1.07-.855-.747.166-1.37.49-1.487,1.37-.019.135-.2.249-.421.293v-2.285h8.384c.065.742.13,1.476.2,2.276-.32.185-.394-.14-.471-.392a1.863,1.863,0,0,0-2.019-1.3c-.37-.009-.555.164-.554.55,0,2.528-.014,5.055,0,7.583a.807.807,0,0,0,.807.879,1.548,1.548,0,0,1,.5.254c-.025.059-.049.12-.072.179a1.4,1.4,0,0,1-.231.053A.168.168,0,0,1-146.193-4685.694Zm26.6-.008a1.72,1.72,0,0,1-.377-.3c.124-.093.244-.26.375-.271,1.216-.1,1.335-.213,1.336-1.417q.007-4.792,0-9.583c0-.989-.039-1.014-1.022-1.033-.516-.011-.516-.011-.656-.592.225-.01.4-.026.576-.024q3.514.046,7.028.1c.3,0,.608,0,.909.029a2.6,2.6,0,0,1,2.505,2.289c.123,1.762-.523,2.73-2.071,3.136-.357.094-.7.233-1.054.352,0,.067.006.135.008.2.413.108.822.226,1.238.321a3.561,3.561,0,0,1,2.958,3.84,2.841,2.841,0,0,1-2.533,2.473,23.609,23.609,0,0,1-3.073.257c-.828.02-1.657.012-2.485,0-.647-.007-1.295-.014-1.942-.006a10.66,10.66,0,0,0-1.374.176,2.779,2.779,0,0,1-.287.061A.163.163,0,0,1-119.6-4685.7Zm4.258-6.5c0,1.716-.009,3.409.019,5.1,0,.145.246.381.407.409a5.679,5.679,0,0,0,1.622.129,3.952,3.952,0,0,0,1.8-.539,2.628,2.628,0,0,0,.627-3.4,3.386,3.386,0,0,0-3.244-1.827A6.911,6.911,0,0,0-115.34-4692.2Zm.377-5.972a.563.563,0,0,0-.362.411c-.026,1.57-.017,3.141-.017,4.8.826,0,1.569.016,2.312-.012a.983.983,0,0,0,.529-.239,2.979,2.979,0,0,0,.9-3.38,2.132,2.132,0,0,0-1.554-1.55,5.343,5.343,0,0,0-.863-.062C-114.334-4698.212-114.65-4698.194-114.962-4698.175Zm-60.807,12.391c.225-.176.349-.355.5-.381a1.405,1.405,0,0,0,1.089-.946c1.168-2.719,2.329-5.443,3.514-8.156a2.723,2.723,0,0,1,.56-.628,2.486,2.486,0,0,1,.519.6c1.064,2.591,2.106,5.192,3.149,7.791.235.584.451,1.171,1.127,1.409.1.034.153.2.244.324-.8-.062-1.528-.173-2.257-.16-.819.015-1.635.156-2.455.209-.15.009-.31-.142-.465-.218l.071-.173c.37-.052.748-.081,1.111-.166.344-.079.434-.311.288-.647-.2-.46-.364-.939-.585-1.392a.546.546,0,0,0-.4-.264c-.969-.022-1.939-.016-2.909,0-.105,0-.272.056-.3.131a15.4,15.4,0,0,0-.615,1.629c-.115.391.129.6.518.644.217.022.435.037.653.056l.075.195c-.146.065-.314.212-.433.181a3.947,3.947,0,0,0-2.654.056.052.052,0,0,1-.022,0C-175.492-4685.693-175.571-4685.732-175.769-4685.784Zm4.666-6.986c-.491,1.074-.982,2.149-1.452,3.234-.03.066.114.3.179.3.876.02,1.751.014,2.718.014-.488-1.356-.892-2.484-1.3-3.615C-171.033-4692.8-171.091-4692.8-171.1-4692.771Zm14.817,6.708a1.94,1.94,0,0,1-.8-.929c-.373-.8-.6-1.673-.988-2.466a1.8,1.8,0,0,0-.917-.924c-1.09-.307-1.376-.039-1.4,1.079-.015.708,0,1.415-.022,2.122a.868.868,0,0,0,.737,1.009c.12.027.209.178.314.272-.147.062-.315.2-.437.171a7.338,7.338,0,0,0-3.8,0c-.137.037-.324-.115-.488-.18.127-.092.245-.251.382-.268.586-.073.818-.347.809-.966q-.046-3.636,0-7.276c.007-.62-.172-.955-.824-.994-.149-.008-.29-.16-.435-.246l.053-.193c.185,0,.369,0,.554,0,1.244.031,2.49.028,3.731.1a25.551,25.551,0,0,1,3.7.389,1.908,1.908,0,0,1,1.057,1.112,2.592,2.592,0,0,1-1.495,3.239c-.222.105-.428.249-.643.374,0,.059.007.118.009.177,1.245.424,1.629,1.569,2.21,2.547.465.784.753,1.708,1.715,2.128a9.4,9.4,0,0,1-1.16.082A4.363,4.363,0,0,1-156.286-4686.062Zm-3.722-9.119a.67.67,0,0,0-.4.463c-.034,1.2-.019,2.409-.019,3.675.749,0,1.471.033,2.187-.02a1.076,1.076,0,0,0,.639-.413,2.833,2.833,0,0,0,.151-2.971,2.133,2.133,0,0,0-1.792-.845A2.689,2.689,0,0,0-160.007-4695.181Zm-24.728,9.074c1.158-.221,1.309-.4,1.308-1.626q0-3.272-.02-6.546c-.006-.84-.105-.933-.934-1.122-.147-.033-.267-.181-.4-.276l.1-.187a2.612,2.612,0,0,1,.471,0c2.152.407,4.308.06,6.462.037.154,0,.427.13.445.236a9.4,9.4,0,0,1,.144,2.175c-.1-.13-.259-.244-.306-.393a2.227,2.227,0,0,0-3.105-1.334.841.841,0,0,0-.394.6c-.049,1.008-.05,2.02-.03,3.029a.528.528,0,0,0,.362.352,7.026,7.026,0,0,0,1.27-.007c.549-.045.76-.45.914-.918a.679.679,0,0,1,.422-.388,4.5,4.5,0,0,0-.046,3.216c-.237-.141-.308-.157-.329-.2-.175-.348-.279-.941-.523-1a6.554,6.554,0,0,0-1.861-.049c-.077,0-.206.234-.208.361-.014.909-.031,1.819.008,2.726.03.681.32.944,1,.953.523.007,1.048-.048,1.57-.092a1.657,1.657,0,0,0,1.448-1.117c.1-.235.221-.461.333-.692l.192.048c-.177.83-.354,1.659-.509,2.386-1.957,0-3.848-.016-5.738.009a9.714,9.714,0,0,0-1.6.207,1.093,1.093,0,0,1-.2.021C-184.7-4685.7-184.79-4685.808-184.735-4686.107Zm49.208.092a2.342,2.342,0,0,1-.97-3.533,4.884,4.884,0,0,1,1.431-1.07c.45-.216.5-.4.327-.813a7.607,7.607,0,0,1-.491-1.53,1.581,1.581,0,0,1,.8-1.648,3.179,3.179,0,0,1,3.268-.285,1.485,1.485,0,0,1,.886,1.4,1.538,1.538,0,0,1-.853,1.426c-.275.167-.557.323-.843.473s-.369.35-.143.624q1.053,1.277,2.1,2.554l.248-.077c.093-.487.211-.974.273-1.465.065-.511-.27-.8-.776-.687a6.516,6.516,0,0,0-.695.232,1.206,1.206,0,0,1,1.141-1.088c.219-.013.439-.011.66-.008s.448.006.673-.007c.495-.028.987-.095,1.625-.16-.136.219-.211.492-.382.586a2.482,2.482,0,0,0-1.031,1.438,11.055,11.055,0,0,1-.757,1.563c-.175.29-.182.485.084.655.486.313.979.617,1.487.89a5.689,5.689,0,0,0,.838.294c-.044.095-.059.159-.077.16-1.3.037-2.613.316-3.854-.348a.771.771,0,0,0-.59.054,6.173,6.173,0,0,1-2.667.68A4.892,4.892,0,0,1-135.527-4686.015Zm1.2-1.453a2.267,2.267,0,0,0,2.7.717c.334-.172.237-.363.05-.57-.338-.373-.692-.732-1.015-1.117-.517-.615-1.015-1.244-1.557-1.911A2.225,2.225,0,0,0-134.328-4687.468Zm1.407-7.316c-.479.033-.618.527-.54.987a8.374,8.374,0,0,0,.336,1.407c.169.475.464.523.737.117a8.239,8.239,0,0,0,.568-1.163c-.082-.362-.063-.626-.183-.742-.263-.248-.6-.606-.895-.606Zm56.43,8.633c.18-.008.356-.022.532-.022a.7.7,0,0,0,.792-.784c.006-2.568,0-5.136.006-7.7,0-.589-.4-.653-.845-.735a1.615,1.615,0,0,1-.479-.279,2.223,2.223,0,0,1,.563-.159c.793-.008,1.587-.009,2.377.041a1.015,1.015,0,0,1,.64.334c1.376,1.639,2.73,3.3,4.1,4.949.187.226.4.43.6.644l.208-.065c.03-.308.083-.618.084-.925.007-1.172-.009-2.345,0-3.518,0-.688-.2-.914-.908-1.024-.17-.027-.318-.191-.477-.29a3.74,3.74,0,0,1,.521-.082c.653-.013,1.308-.021,1.961-.008a2.045,2.045,0,0,1,.489.135c-.129.089-.251.24-.388.254-.471.051-.576.305-.574.741.015,2.589.021,5.178-.009,7.766a4.313,4.313,0,0,1-.346,1.146,4.689,4.689,0,0,1-1.047-.735c-1.622-1.988-3.2-4.012-4.808-6.013a12.731,12.731,0,0,0-.989-.98c-.038.308-.071.453-.071.6q-.005,2.82,0,5.641c0,.8.159.953.982,1.054a1.857,1.857,0,0,1,.422.161c-.015.07-.031.14-.045.208a7.222,7.222,0,0,0-.835-.065c-.672.025-1.348.045-2.013.133a2.186,2.186,0,0,1-.233.027C-76.428-4685.708-76.448-4685.79-76.491-4686.151Zm-124.818.342a.338.338,0,0,1-.047-.317.689.689,0,0,1,.412-.152c1.026,0,1.263-.178,1.269-1.224q.028-4.883-.006-9.765c-.006-.945-.125-1.025-1.059-1.039-.062,0-.143.025-.179,0-.147-.119-.279-.255-.418-.387.141-.072.282-.207.42-.2.626.009,1.252.091,1.877.087,1.192-.007,2.384-.051,3.576-.086.367-.012.615.063.448.6-.33,0-.689.021-1.044,0a.544.544,0,0,0-.658.6c-.009,1.4,0,2.791.034,4.184,0,.121.282.333.434.335,1.7.027,3.4.017,5.1.027.387,0,.473-.2.477-.534.013-1.233.059-2.466.058-3.7,0-.813-.11-.895-.919-.91-.368-.007-.782.059-.886-.561.256-.02.465-.051.674-.051,1.676,0,3.351,0,5.027.02a2,2,0,0,1,.633.24c-.2.117-.4.333-.6.336-.957.02-.98-.077-.98,1.027q0,4.885,0,9.768c0,.956.253,1.2,1.212,1.254.174.012.34.176.509.271-.2.1-.414.293-.615.285-.983-.044-1.964-.19-2.948-.2-.74-.009-1.479.143-2.22.2a1.9,1.9,0,0,1-.633-.083c-.034-.009-.054-.3-.014-.318a1.415,1.415,0,0,1,.551-.154c.884-.02,1.209-.324,1.207-1.2,0-1.435-.034-2.871-.03-4.306,0-.473-.175-.632-.647-.625-1.6.026-3.195.022-4.791.012-.462,0-.644.162-.638.642.02,1.4,0,2.79,0,4.185,0,1.022.254,1.282,1.293,1.28.4,0,.573.123.452.54-1.173-.066-2.3-.176-3.42-.177-.821,0-1.641.146-2.462.213l-.061,0A.75.75,0,0,1-201.309-4685.809Zm147.76.1c-.963-.046-1.924-.194-2.886-.205-.758-.007-1.518.142-2.279.2a1.351,1.351,0,0,1-.561-.1c-.046-.018-.066-.286-.026-.309a1.123,1.123,0,0,1,.489-.143c.775-.016,1.16-.367,1.161-1.142q0-4.972-.018-9.946c0-.837-.109-.923-.954-.949-.63-.019-.63-.019-.886-.574.277-.017.47-.038.663-.038,1.736,0,3.472-.007,5.208.013.191,0,.379.161.568.247a6.138,6.138,0,0,1-.543.348.593.593,0,0,1-.3.006c-.59-.07-.766.2-.762.773.018,3.4.006,6.793.008,10.19,0,.8.252,1.042,1.05,1.057.014,0,.03,0,.044,0a.134.134,0,0,1,.076,0c.17.09.336.188.5.283-.181.1-.366.292-.543.292Zm10.127-.205a4.6,4.6,0,0,1-.673-.7c-1.589-1.988-3.164-3.989-4.758-5.972a7.725,7.725,0,0,0-.814-.768l-.142.091c0,2.121,0,4.241,0,6.363,0,.467.29.677.727.73.214.026.426.072.639.109l-.018.224c-.254,0-.509-.009-.763,0-.71.031-1.419.085-2.129.1-.153,0-.308-.135-.461-.208.024-.054.047-.109.072-.163.288-.052.66-.013.844-.18a1.429,1.429,0,0,0,.464-.912c.039-2.364.028-4.729.024-7.1,0-.842-.124-.959-.945-1.1-.138-.025-.256-.173-.382-.263a1.562,1.562,0,0,1,.48-.169c.815,0,1.633,0,2.445.059a1.109,1.109,0,0,1,.692.365c1.211,1.435,2.393,2.9,3.588,4.345.34.412.693.811,1.04,1.215l.194-.054a5.106,5.106,0,0,0,.12-.782c0-1.172-.027-2.344-.039-3.516-.008-.908-.164-1.077-1.061-1.2-.133-.02-.244-.176-.366-.27.136-.052.293-.175.407-.144a3.67,3.67,0,0,0,2.32,0c.082-.031.221.095.335.147-.1.095-.194.266-.3.271-.561.034-.666.333-.663.845.024,2.588.011,5.176.008,7.764a2.876,2.876,0,0,1-.021.544c-.064.334-.233.514-.453.514A.673.673,0,0,1-43.423-4685.917Zm-39.931-.053c.026-.057.053-.113.079-.17.179-.012.357-.018.536-.035.511-.05.821-.292.822-.846q.005-3.848.018-7.7c0-.466-.337-.537-.667-.645-.212-.07-.417-.162-.624-.245.018-.05.037-.1.056-.149h4.863l.079.109a2.611,2.611,0,0,1-.569.28.713.713,0,0,0-.659.829c.026,2.423.009,4.848.009,7.272,0,.832.112.954.934,1.11a1.746,1.746,0,0,1,.406.194c-.014.058-.03.115-.044.173a2.4,2.4,0,0,1-.5.023,11.206,11.206,0,0,0-4.326.022.1.1,0,0,1-.025,0C-83.077-4685.741-83.225-4685.9-83.353-4685.97Z" transform="translate(248.12 4716.371)" fill="#fff" stroke="rgba(0,0,0,0)" stroke-miterlimit="10" stroke-width="1"/>
</svg>
